<svg width="32" height="32" viewBox="0 0 32 32" fill="none" xmlns="http://www.w3.org/2000/svg">
<rect width="32" height="32" rx="8" fill="#FFF9ED"/>
<path d="M25.4238 16H20.9532C20.5254 16 20.1786 15.6195 20.1786 15.1502L20.1786 6.6078C20.1786 6.41019 20.0325 6.25 19.8524 6.25H17.719C17.5389 6.25 17.3929 6.41019 17.3929 6.6078V15.1502C17.3929 15.6195 17.046 16 16.6182 16H15.3818C14.954 16 14.6072 15.6196 14.6071 15.1503V6.6078C14.6071 6.41019 14.4611 6.25 14.281 6.25H12.1476C11.9675 6.25 11.8214 6.41019 11.8214 6.6078L11.8214 15.1502C11.8214 15.6195 11.4746 16 11.0468 16H6.57617C6.39603 16 6.25 16.1602 6.25 16.3578V25.3922C6.25 25.5898 6.39603 25.75 6.57617 25.75H11.4953C11.6754 25.75 11.8214 25.5898 11.8214 25.3922V16.8497C11.8215 16.3804 12.1683 16 12.5961 16H13.8325C14.2603 16 14.6071 16.3805 14.6071 16.8498V25.3922C14.6071 25.5898 14.7532 25.75 14.9333 25.75H17.0667C17.2468 25.75 17.3929 25.5898 17.3929 25.3922V16.8498C17.3929 16.3805 17.7397 16 18.1675 16H19.4039C19.8317 16 20.1785 16.3804 20.1786 16.8497V25.3922C20.1786 25.5898 20.3246 25.75 20.5047 25.75H25.4238C25.604 25.75 25.75 25.5898 25.75 25.3922V16.3578C25.75 16.1602 25.604 16 25.4238 16Z" fill="#AC7000"/>
</svg>
